<svg width="151" height="89" viewBox="0 0 151 89" fill="none" xmlns="http://www.w3.org/2000/svg">
<path opacity="0.164714" fill-rule="evenodd" clip-rule="evenodd" d="M77.3075 0C94.4289 0 108.624 12.4468 111.224 28.7288L111.789 28.7288C123.691 28.7288 133.339 38.3756 133.339 50.2754C133.339 62.1753 123.691 71.822 111.789 71.822H62.7078C62.4735 71.822 62.2401 71.8183 62.0076 71.8109C61.7481 71.8186 61.4879 71.822 61.2268 71.822H46.3939C30.5252 71.822 17.661 58.9597 17.661 43.0932C17.661 27.2267 30.5252 14.3644 46.3939 14.3644L49.3025 14.365C55.5267 5.67121 65.7504 0 77.3075 0Z" fill="#B9B9B9"/>
<path opacity="0.08" d="M106.087 33.4912C105.276 33.4906 104.502 33.6373 103.765 33.9315C103.028 34.2256 102.365 34.6672 101.775 35.2562L95.6981 41.3305C95.1272 41.9011 94.6946 42.5547 94.4003 43.2914C94.106 44.028 93.95 44.8108 93.9322 45.6397C93.9329 46.4503 94.0809 47.2241 94.3764 47.9613C94.6719 48.6984 95.1148 49.3619 95.7051 49.9519L96.0924 50.3391C97.0885 51.3346 98.0016 52.2196 98.8316 52.994C99.6616 53.7684 100.528 54.4139 101.432 54.9304C102.335 55.4469 103.34 55.853 104.446 56.1487C105.553 56.4443 106.87 56.5836 108.4 56.5664C110.704 56.5683 113.072 56.211 115.504 55.4945C117.937 54.778 120.35 53.7852 122.745 52.516C125.14 51.2469 127.498 49.7382 129.819 47.99C132.14 46.2418 134.323 44.3369 136.367 42.2754C138.411 40.2138 140.308 38.0231 142.057 35.7034C143.806 33.3837 145.297 31.0269 146.53 28.6331C147.763 26.2393 148.737 23.836 149.454 21.4233C150.171 19.0107 150.519 16.6898 150.499 14.4608C150.498 12.9317 150.368 11.6237 150.109 10.5366C149.85 9.4495 149.453 8.45441 148.918 7.55131C148.382 6.6482 147.737 5.79107 146.98 4.9799C146.224 4.16872 145.339 3.25613 144.324 2.24211L143.881 1.79963C143.31 1.22809 142.655 0.785433 141.917 0.471665C141.18 0.157896 140.396 0.000675161 139.567 2.0742e-06C138.756 -0.000656055 137.982 0.155301 137.245 0.467873C136.508 0.780445 135.845 1.22203 135.256 1.79263L129.178 7.86688C128.607 8.43749 128.175 9.09111 127.881 9.82774C127.586 10.5644 127.43 11.3472 127.412 12.1761C127.413 12.9867 127.552 13.7053 127.829 14.3318C128.106 14.9584 128.447 15.539 128.853 16.0735C129.259 16.6081 129.702 17.0782 130.181 17.4839C130.661 17.8895 131.113 18.3044 131.537 18.7284C131.961 19.1525 132.303 19.558 132.561 19.9451C132.819 20.3322 132.958 20.7836 132.977 21.2994C132.977 21.9995 132.729 22.598 132.232 23.0949L117.011 38.3082C116.514 38.8052 115.915 39.0534 115.215 39.0528C114.735 39.0524 114.293 38.9139 113.887 38.6372C113.482 38.3606 113.067 38.0195 112.642 37.6138C112.218 37.2082 111.803 36.7657 111.397 36.2864C110.991 35.8072 110.521 35.3554 109.986 34.9313C109.451 34.5072 108.88 34.1659 108.271 33.9075C107.663 33.6491 106.935 33.5104 106.087 33.4912Z" fill="black"/>
<g opacity="0.118276">
<path fill-rule="evenodd" clip-rule="evenodd" d="M29.8803 88.9504C34.7859 88.9504 38.7627 85.0076 38.7627 80.1439V57.1116C38.7627 52.2479 34.7859 48.3051 29.8803 48.3051H9.38242C4.47679 48.3051 0.5 52.2479 0.5 57.1116V80.1439C0.5 85.0076 4.47679 88.9504 9.38242 88.9504H29.8803ZM55.161 53.8354C55.161 53.1925 54.9304 52.5705 54.5105 52.0806C53.5329 50.9403 51.8081 50.8015 50.658 51.7707L41.4958 59.4905V77.7619L50.6581 85.4841C51.1522 85.9005 51.7795 86.1291 52.428 86.1291C53.9374 86.1291 55.161 84.9159 55.161 83.4194V53.8354Z" fill="#212121"/>
</g>
</svg>