<svg width="24" height="24" viewBox="0 0 24 24" fill="none" xmlns="http://www.w3.org/2000/svg">
<circle cx="12.0582" cy="12.0436" r="11.6569" fill="#F8000F"/>
<path d="M13.4773 12.795C13.6132 12.5224 13.6852 12.2223 13.6878 11.9176V9.41078C13.6823 8.91553 13.4937 8.43984 13.1583 8.07535C12.823 7.71087 12.3646 7.48336 11.8715 7.43667C11.3785 7.38998 10.8855 7.5274 10.4877 7.82246C10.0899 8.11751 9.81539 8.54934 9.71698 9.03475L13.4773 12.795ZM15.1919 11.9176C15.1919 11.7847 15.1391 11.6571 15.0451 11.5631C14.9511 11.4691 14.8235 11.4163 14.6906 11.4163C14.5576 11.4163 14.4301 11.4691 14.3361 11.5631C14.242 11.6571 14.1892 11.7847 14.1892 11.9176C14.1877 12.3557 14.0682 12.7852 13.8433 13.161L14.5803 13.9231C14.9838 13.3326 15.1972 12.6328 15.1919 11.9176ZM11.6824 13.9231H11.7626L9.67687 11.8324V11.9176C9.67687 12.4495 9.88816 12.9596 10.2643 13.3357C10.6404 13.7118 11.1505 13.9231 11.6824 13.9231ZM16.0493 16.074L8.02736 8.05207C7.98062 8.00532 7.92512 7.96824 7.86404 7.94294C7.80296 7.91764 7.7375 7.90462 7.67139 7.90462C7.60528 7.90462 7.53982 7.91764 7.47874 7.94294C7.41766 7.96824 7.36216 8.00532 7.31542 8.05207C7.22101 8.14648 7.16797 8.27452 7.16797 8.40804C7.16797 8.54156 7.22101 8.6696 7.31542 8.76401L15.3373 16.7859C15.384 16.8329 15.4394 16.8702 15.5005 16.8957C15.5616 16.9211 15.6271 16.9342 15.6933 16.9342C15.7595 16.9342 15.825 16.9211 15.8861 16.8957C15.9472 16.8702 16.0027 16.8329 16.0493 16.7859C16.0963 16.7393 16.1336 16.6839 16.159 16.6228C16.1845 16.5617 16.1976 16.4962 16.1976 16.43C16.1976 16.3638 16.1845 16.2983 16.159 16.2372C16.1336 16.1761 16.0963 16.1206 16.0493 16.074Z" fill="white"/>
<path d="M13.1861 16.4297H12.1833V15.3869C12.4671 15.3474 12.7449 15.2733 13.0106 15.1663L12.2084 14.3641C12.0358 14.4044 11.8592 14.4246 11.682 14.4242C11.0171 14.4242 10.3795 14.1601 9.90934 13.69C9.43922 13.2199 9.1751 12.5822 9.1751 11.9174C9.1751 11.7844 9.12228 11.6569 9.02826 11.5629C8.93423 11.4688 8.80671 11.416 8.67373 11.416C8.54076 11.416 8.41324 11.4688 8.31921 11.5629C8.22519 11.6569 8.17236 11.7844 8.17236 11.9174C8.17335 12.7606 8.4779 13.5753 9.0303 14.2124C9.5827 14.8495 10.346 15.2664 11.1806 15.3869V16.4297H10.1778C10.0449 16.4297 9.91735 16.4825 9.82332 16.5766C9.7293 16.6706 9.67648 16.7981 9.67648 16.9311C9.67648 17.0641 9.7293 17.1916 9.82332 17.2856C9.91735 17.3796 10.0449 17.4325 10.1778 17.4325H13.1861C13.319 17.4325 13.4466 17.3796 13.5406 17.2856C13.6346 17.1916 13.6874 17.0641 13.6874 16.9311C13.6874 16.7981 13.6346 16.6706 13.5406 16.5766C13.4466 16.4825 13.319 16.4297 13.1861 16.4297Z" fill="white"/>
</svg>
