<svg width="21" height="20" viewBox="0 0 21 20" fill="none" xmlns="http://www.w3.org/2000/svg">
<circle cx="10.3291" cy="9.77004" r="9.69655" fill="#00E324"/>
<rect x="7.36548" y="4.48071" width="0.583042" height="10.5919" rx="0.291521" fill="white"/>
<rect x="6.29688" y="6.22974" width="0.583042" height="7.09368" rx="0.291521" fill="white"/>
<rect x="5.22778" y="8.07593" width="0.583042" height="3.40108" rx="0.291521" fill="white"/>
<rect x="4.15894" y="8.07593" width="0.583042" height="3.40108" rx="0.291521" fill="white"/>
<rect x="8.43433" y="5.54932" width="0.583042" height="8.45412" rx="0.291521" fill="white"/>
<rect x="9.50342" y="7.10425" width="0.583042" height="5.34456" rx="0.291521" fill="white"/>
<rect x="10.5723" y="6.22974" width="0.583042" height="7.09368" rx="0.291521" fill="white"/>
<rect x="11.6414" y="8.07593" width="0.583042" height="3.40108" rx="0.291521" fill="white"/>
<rect x="12.7102" y="6.22974" width="0.583042" height="7.09368" rx="0.291521" fill="white"/>
<rect x="13.7788" y="8.65918" width="0.583042" height="2.235" rx="0.291521" fill="white"/>
<rect x="14.8481" y="7.10425" width="0.583042" height="5.34456" rx="0.291521" fill="white"/>
<rect x="15.9167" y="8.07593" width="0.583042" height="3.40108" rx="0.291521" fill="white"/>
</svg>
