<svg width="50" height="50" viewBox="0 0 50 50" fill="none" xmlns="http://www.w3.org/2000/svg">
<path d="M37.1875 22.1562L31.5 27.8438" stroke="#BB060C" stroke-linecap="round" stroke-linejoin="round"/>
<path d="M31.5 22.1562L37.1875 27.8438" stroke="#BB060C" stroke-linecap="round" stroke-linejoin="round"/>
<path d="M18.3061 21.7501H13.625C13.4095 21.7501 13.2028 21.8357 13.0505 21.988C12.8981 22.1404 12.8125 22.3471 12.8125 22.5626V27.4376C12.8125 27.6531 12.8981 27.8597 13.0505 28.0121C13.2028 28.1645 13.4095 28.2501 13.625 28.2501H18.3061C18.9047 29.7828 19.9146 31.1206 21.2247 32.1163C22.5348 33.1119 24.0942 33.7268 25.7313 33.8931C25.8442 33.9043 25.9582 33.8918 26.066 33.8563C26.1738 33.8207 26.2729 33.7631 26.3571 33.687C26.4413 33.6109 26.5086 33.518 26.5547 33.4143C26.6009 33.3106 26.6248 33.1985 26.625 33.085V16.9151C26.625 16.8016 26.6011 16.6894 26.5551 16.5856C26.509 16.4818 26.4417 16.3889 26.3574 16.3128C26.2732 16.2366 26.174 16.179 26.0662 16.1435C25.9583 16.1081 25.8442 16.0956 25.7313 16.107C24.0942 16.2733 22.5348 16.8882 21.2247 17.8838C19.9146 18.8795 18.9047 20.2173 18.3061 21.7501V21.7501Z" stroke="#BB060C" stroke-linecap="round" stroke-linejoin="round"/>
</svg>
